<svg width="975" height="415" viewBox="0 0 975 415" fill="none" xmlns="http://www.w3.org/2000/svg">
<path class="svg-icon" d="M312.973 331.077H268.503V409.125H160.682V331.077H0V251.35L167.814 5.87451H268.503V249.671H312.973V331.077ZM160.682 249.671V202.674C160.682 193.862 161.102 182.113 161.521 167.007C162.36 151.901 162.78 144.348 163.199 143.508H160.262C153.969 157.775 146.837 170.783 138.866 183.372L94.3954 249.671H160.682Z" fill="#9098B1"/>
<path class="svg-icon"d="M632.659 208.129C632.659 279.464 620.493 331.916 596.999 365.066C573.085 398.215 536.586 415 487.081 415C438.834 415 402.754 397.796 378.002 362.968C353.668 328.14 341.502 276.527 341.502 208.129C341.502 136.375 353.249 83.9231 377.582 50.3539C401.495 16.7846 437.995 0 487.5 0C535.327 0 571.827 17.6239 596.16 52.452C620.493 87.2801 632.659 138.893 632.659 208.129ZM449.742 208.129C449.742 253.868 452.679 285.339 458.133 302.123C464.006 319.328 473.236 327.72 486.661 327.72C500.086 327.72 509.736 318.908 515.609 301.284C521.063 283.66 524 252.609 524 208.129C524 163.231 521.063 132.179 515.609 114.135C509.736 96.092 500.506 87.2801 487.081 87.2801C473.656 87.2801 464.006 96.092 458.552 113.296C452.679 130.501 449.742 161.972 449.742 208.129Z" fill="#9098B1"/>
<path class="svg-icon" d="M975 331.077H930.529V409.125H822.709V331.077H662.027V251.35L829.841 5.87451H930.529V249.671H975V331.077ZM823.128 249.671V202.674C823.128 193.862 823.548 182.113 823.967 167.007C824.807 151.901 825.226 144.348 825.646 143.508H822.709C816.416 157.775 809.284 170.783 801.313 183.372L756.422 250.091H823.128V249.671Z" fill="#9098B1"/>
<g clip-path="url(#svg-icon-404)">
<path d="M671.936 45.729C664.054 62.9785 642.379 50.4549 598.163 66.0503C561.276 79.0465 545.906 101.81 535.345 96.1384C524.783 90.3886 545.749 63.9236 599.108 43.051C638.833 27.4555 681.158 25.6439 671.936 45.729Z" fill="#231F20"/>
<path d="M329.946 49.1159C338.143 66.2079 359.581 53.2904 404.113 68.0194C441.237 80.3068 457.079 102.833 467.483 96.8474C477.887 90.94 456.448 64.8689 402.695 45.0201C362.734 30.2911 320.33 29.2672 329.946 49.1159Z" fill="#231F20"/>
<path d="M618.104 220.272C651.273 220.272 678.163 193.4 678.163 160.253C678.163 127.105 651.273 100.234 618.104 100.234C584.934 100.234 558.044 127.105 558.044 160.253C558.044 193.4 584.934 220.272 618.104 220.272Z" fill="white"/>
<path d="M653.492 111.813C659.64 121.265 663.187 132.449 663.187 144.579C663.187 177.739 636.31 204.598 603.128 204.598C589.887 204.598 577.67 200.266 567.739 193.019C578.458 209.481 596.98 220.272 618.103 220.272C651.286 220.272 678.162 193.413 678.162 160.253C678.084 140.326 668.389 122.682 653.492 111.813Z" fill="#EFEFEF"/>
<path d="M618.103 223.029C583.502 223.029 555.286 194.831 555.286 160.253C555.286 125.675 583.502 97.4775 618.103 97.4775C652.704 97.4775 680.921 125.675 680.921 160.253C680.921 194.831 652.783 223.029 618.103 223.029ZM618.103 102.991C586.497 102.991 560.803 128.668 560.803 160.253C560.803 191.838 586.497 217.515 618.103 217.515C649.709 217.515 675.404 191.838 675.404 160.253C675.483 128.668 649.709 102.991 618.103 102.991Z" fill="#231F20"/>
<path d="M648.054 180.732C660.852 180.732 671.227 170.364 671.227 157.575C671.227 144.786 660.852 134.418 648.054 134.418C635.256 134.418 624.882 144.786 624.882 157.575C624.882 170.364 635.256 180.732 648.054 180.732Z" fill="#231F20"/>
<path d="M642.3 162.852C647.524 162.852 651.759 158.621 651.759 153.401C651.759 148.18 647.524 143.949 642.3 143.949C637.077 143.949 632.842 148.18 632.842 153.401C632.842 158.621 637.077 162.852 642.3 162.852Z" fill="white"/>
<path d="M375.818 218.303C408.988 218.303 435.877 191.431 435.877 158.284C435.877 125.136 408.988 98.2651 375.818 98.2651C342.648 98.2651 315.759 125.136 315.759 158.284C315.759 191.431 342.648 218.303 375.818 218.303Z" fill="white"/>
<path d="M411.128 109.844C417.276 119.295 420.823 130.48 420.823 142.61C420.823 175.77 393.946 202.628 360.764 202.628C347.522 202.628 335.306 198.296 325.375 191.05C336.094 207.512 354.616 218.303 375.739 218.303C408.921 218.303 435.798 191.444 435.798 158.284C435.798 138.356 426.104 120.713 411.128 109.844Z" fill="#EFEFEF"/>
<path d="M375.818 221.059C341.217 221.059 313 192.94 313 158.284C313 123.627 341.217 95.5083 375.818 95.5083C410.419 95.5083 438.635 123.706 438.635 158.284C438.635 192.862 410.498 221.059 375.818 221.059ZM375.818 101.022C344.212 101.022 318.517 126.699 318.517 158.284C318.517 189.869 344.212 215.546 375.818 215.546C407.424 215.546 433.118 189.869 433.118 158.284C433.118 126.699 407.424 101.022 375.818 101.022Z" fill="#231F20"/>
<path d="M405.69 178.842C418.487 178.842 428.862 168.474 428.862 155.685C428.862 142.896 418.487 132.528 405.69 132.528C392.892 132.528 382.517 142.896 382.517 155.685C382.517 168.474 392.892 178.842 405.69 178.842Z" fill="#231F20"/>
<path d="M400.015 160.883C405.238 160.883 409.473 156.651 409.473 151.431C409.473 146.211 405.238 141.979 400.015 141.979C394.791 141.979 390.557 146.211 390.557 151.431C390.557 156.651 394.791 160.883 400.015 160.883Z" fill="white"/>
<path d="M362.813 369.452C362.34 369.452 361.867 369.374 361.394 369.295C358.241 368.507 356.271 365.357 357.059 362.127C357.768 359.213 373.296 333.772 398.36 307.622C421.532 283.441 458.655 253.038 503.502 245.555C575.936 233.347 606.281 267.688 607.542 269.185C609.67 271.626 609.355 275.407 606.911 277.534C604.468 279.66 600.685 279.345 598.557 276.904C598.478 276.825 591.699 269.185 576.961 262.962C563.246 257.212 539.759 251.541 505.473 257.291C464.566 264.144 430.202 292.105 408.527 314.317C384.172 339.285 369.906 362.757 368.33 365.75C367.384 367.956 365.177 369.452 362.813 369.452Z" fill="#231F20"/>
<path d="M609.197 253.668C615.345 263.671 617.631 275.959 615.581 287.537C614.951 290.845 614.005 294.075 612.744 297.225C612.35 298.17 613.138 299.273 614.005 299.509C615.03 299.824 615.897 299.115 616.291 298.249C621.02 286.671 621.177 273.281 617 261.545C615.818 258.158 614.241 254.928 612.429 251.857C611.168 249.73 608.015 251.62 609.197 253.668Z" fill="#231F20"/>
<path d="M345.946 344.011C340.586 356.141 340.665 370.082 346.104 382.133C346.498 383.079 347.838 383.236 348.626 382.764C349.572 382.212 349.729 381.188 349.256 380.243C344.37 369.531 344.37 356.614 349.099 345.902C349.493 344.956 349.335 343.932 348.468 343.381C347.68 342.909 346.34 343.066 345.946 344.011Z" fill="#231F20"/>
<path d="M463.463 48.722C467.246 49.1946 469.69 53.2116 471.345 56.1259C473.788 60.3792 476.153 64.7113 477.966 69.2009C481.434 77.4712 483.168 86.6079 480.409 95.3508C479.069 99.6828 476.547 103.464 473 106.22C472.212 106.85 472.37 108.189 473 108.82C473.788 109.607 474.813 109.45 475.601 108.82C482.852 103.148 485.926 93.4604 485.532 84.56C485.059 73.7692 479.936 63.6873 474.734 54.4718C472.212 50.061 468.902 45.5714 463.542 44.9413C462.517 44.8625 461.729 45.8865 461.729 46.7529C461.65 47.9344 462.517 48.5645 463.463 48.722Z" fill="#231F20"/>
<path d="M531.562 111.813C524.626 109.765 519.424 103.936 516.823 97.3987C513.67 89.4435 514.143 80.7006 516.429 72.5878C517.847 67.4681 519.897 62.5847 522.261 57.78C522.655 56.9136 522.498 55.8109 521.631 55.2596C520.842 54.787 519.581 55.0233 519.108 55.8897C514.695 64.9476 510.99 74.7145 510.911 84.8751C510.832 93.303 513.591 101.81 519.266 108.111C522.34 111.498 526.202 114.018 530.537 115.278C532.823 115.987 533.768 112.443 531.562 111.813Z" fill="#231F20"/>
</g>
<defs>
<clipPath id="svg-icon-404">
<rect width="368" height="352" fill="white" transform="translate(313 31)"/>
</clipPath>
</defs>
</svg>
